<?xml version="1.0" encoding="UTF-8"?>
<svg version="1.1" xmlns="http://www.w3.org/2000/svg" width="113" height="41">
<path d="M0 0 C2.375 1.75 2.375 1.75 4 4 C3.80420856 6.61055254 3.11698213 8.66855062 2.25 11.125 C2.1675 11.74375 2.085 12.3625 2 13 C2.7115625 13.6496875 2.7115625 13.6496875 3.4375 14.3125 C5 16 5 16 5.3125 19.5625 C5 23 5 23 3 25 C-4.94117647 25.58823529 -4.94117647 25.58823529 -8 23 C-8.875 20 -8.875 20 -9 17 C-8.34 16.34 -7.68 15.68 -7 15 C-7 13.68 -7 12.36 -7 11 C-7.66 10.34 -8.32 9.68 -9 9 C-9.26991906 6.31160615 -9.08737357 3.70858064 -9 1 C-5.66150976 -1.10201238 -3.73424825 -1.30698689 0 0 Z " fill="#111111" transform="translate(56,10)"/>
</svg>
