<?xml version="1.0" encoding="UTF-8"?>
<svg version="1.1" xmlns="http://www.w3.org/2000/svg" width="22" height="35">
<path d="M0 0 C2.97 0.495 2.97 0.495 6 1 C6.59732819 3.76264289 7 6.16032769 7 9 C6.01 10.485 6.01 10.485 5 12 C5.99 12.33 6.98 12.66 8 13 C8.33 12.34 8.66 11.68 9 11 C8.93039063 12.01320313 8.93039063 12.01320313 8.859375 13.046875 C8.40456996 18.6667507 8.40456996 18.6667507 11.0625 23.3125 C12.0215625 24.1478125 12.0215625 24.1478125 13 25 C12.93070475 27.84110514 12.50122109 29.3613725 10.74609375 31.59765625 C7.42363454 34.26602953 3.12836446 34.1380504 -1 34 C-4.125 32.5625 -4.125 32.5625 -6 31 C-5.61641533 27.70117182 -5.3432439 25.47526078 -3.375 22.75 C-1.51248298 19.02496596 -2.24460505 16.40004399 -2.80078125 12.36328125 C-3.04976048 9.40970412 -2.34380867 7.6129613 -1 5 C-0.63128912 3.34080104 -0.28718326 1.6752357 0 0 Z " fill="#080808" transform="translate(8,1)"/>
</svg>
