<?xml version="1.0" encoding="UTF-8"?>
<svg version="1.1" xmlns="http://www.w3.org/2000/svg" width="34" height="33">
<path d="M0 0 C1.9924325 0.37593066 3.9918674 0.71979545 6 1 C6 3.97 6 6.94 6 10 C3.36 10.66 0.72 11.32 -2 12 C-1.34 15.63 -0.68 19.26 0 23 C0.99 23 1.98 23 3 23 C3 24.65 3 26.3 3 28 C-4.26308189 29.32056034 -13.4379266 30.96230208 -20 27 C-20 26.01 -20 25.02 -20 24 C-19.34 23.67 -18.68 23.34 -18 23 C-18.309375 22.319375 -18.61875 21.63875 -18.9375 20.9375 C-21.40203873 14.12377527 -21.11628858 7.14528746 -21 0 C-13.75448402 -2.46655863 -7.1160064 -3.26951645 0 0 Z " fill="#080808" transform="translate(24,3)"/>
</svg>
