<?xml version="1.0" standalone="no"?>
<!DOCTYPE svg PUBLIC "-//W3C//DTD SVG 20010904//EN"
 "http://www.w3.org/TR/2001/REC-SVG-20010904/DTD/svg10.dtd">
<svg version="1.0" xmlns="http://www.w3.org/2000/svg"
 width="33.000000pt" height="21.000000pt" viewBox="0 0 33.000000 21.000000"
 preserveAspectRatio="xMidYMid meet">

<g transform="translate(0.000000,21.000000) scale(0.100000,-0.100000)"
fill="#000000" stroke="none">
<path d="M147 183 c-9 -11 -17 -25 -17 -31 0 -16 -10 -15 -32 5 -17 15 -18 15
-18 -5 0 -26 -12 -28 -30 -7 -22 27 -40 18 -40 -21 0 -64 71 -114 160 -114 44
0 119 36 129 62 29 78 21 109 -21 71 -17 -15 -18 -15 -18 6 0 21 -1 21 -22 7
-21 -15 -23 -14 -48 15 -25 30 -26 30 -43 12z m-12 -122 c3 -5 1 -12 -5 -16
-5 -3 -10 1 -10 9 0 18 6 21 15 7z m82 -13 c-3 -8 -6 -5 -6 6 -1 11 2 17 5 13
3 -3 4 -12 1 -19z"/>
</g>
</svg>
