<?xml version="1.0" encoding="UTF-8"?>
<svg version="1.1" xmlns="http://www.w3.org/2000/svg" width="113" height="41">
<path d="M0 0 C1.98 1.65 3.96 3.3 6 5 C7.32 4.34 8.64 3.68 10 3 C10.33 3.99 10.66 4.98 11 6 C11.66 5.34 12.32 4.68 13 4 C13.99 4 14.98 4 16 4 C15.63444109 11.18932528 15.63444109 11.18932528 12.75 14.875 C7.16356623 19.19178973 1.94163318 19.88800924 -5 19 C-9.21165873 17.47846966 -13.00809042 15.10099031 -15 11 C-15.1875 7.25 -15.1875 7.25 -15 4 C-12.03824877 4.61277612 -10.61941217 5.25372522 -8 7 C-7.67 5.68 -7.34 4.36 -7 3 C-5.68 3.99 -4.36 4.98 -3 6 C-2.87625 5.38125 -2.7525 4.7625 -2.625 4.125 C-2 2 -2 2 0 0 Z " fill="#110B0A" transform="translate(56,10)"/>
<path d="M0 0 C1.875 0.3125 1.875 0.3125 4 1 C4.66 1.99 5.32 2.98 6 4 C5.34 4.66 4.68 5.32 4 6 C3.67 6.66 3.34 7.32 3 8 C2.01 7.67 1.02 7.34 0 7 C0 4.69 0 2.38 0 0 Z " fill="#0A0100" transform="translate(41,14)"/>
<path d="M0 0 C-0.33 2.64 -0.66 5.28 -1 8 C-1.99 7.67 -2.98 7.34 -4 7 C-3.67 6.34 -3.34 5.68 -3 5 C-3.99 4.34 -4.98 3.68 -6 3 C-3.375 0 -3.375 0 0 0 Z " fill="#0C0000" transform="translate(72,14)"/>
<path d="M0 0 C0.99 0.33 1.98 0.66 3 1 C3 1.66 3 2.32 3 3 C3.66 3.66 4.32 4.32 5 5 C3.02 5 1.04 5 -1 5 C-0.67 3.35 -0.34 1.7 0 0 Z " fill="#0E0000" transform="translate(53,14)"/>
</svg>
