<?xml version="1.0" encoding="UTF-8"?>
<svg version="1.1" xmlns="http://www.w3.org/2000/svg" width="37" height="19">
<path d="M0 0 C3.94139078 1.66751148 6.7892812 4.22710649 10 7 C11.32 4.69 12.64 2.38 14 0 C16.31 0 18.62 0 21 0 C22.32 2.64 23.64 5.28 25 8 C25.99 8 26.98 8 28 8 C28.33 7.01 28.66 6.02 29 5 C32.44444444 2 32.44444444 2 35 2 C35.375 5.1875 35.375 5.1875 35 9 C28.81736663 15.18263337 24.04860083 16.60618107 15.52734375 17.08984375 C10.79611115 16.96933616 7.63467709 16.03194169 4 13 C0.90827792 9.52181266 0.0507969 7.78735198 -0.25 3.125 C-0.1675 2.09375 -0.085 1.0625 0 0 Z " fill="#100D10" transform="translate(1,2)"/>
<path d="M0 0 C1.65 0.33 3.3 0.66 5 1 C4.34 2.65 3.68 4.3 3 6 C0.69 6 -1.62 6 -4 6 C-3.01 5.67 -2.02 5.34 -1 5 C-0.67 3.35 -0.34 1.7 0 0 Z " fill="#45465B" transform="translate(17,13)"/>
</svg>
