<?xml version="1.0" encoding="UTF-8"?>
<svg version="1.1" xmlns="http://www.w3.org/2000/svg" width="113" height="41">
<path d="M0 0 C0.99 0 1.98 0 3 0 C3 0.99 3 1.98 3 3 C3.99 3 4.98 3 6 3 C6 2.01 6 1.02 6 0 C6.99 0 7.98 0 9 0 C9 0.99 9 1.98 9 3 C9.99 3 10.98 3 12 3 C12 2.01 12 1.02 12 0 C12.99 0 13.98 0 15 0 C15 1.98 15 3.96 15 6 C13.68 6 12.36 6 11 6 C11 10.29 11 14.58 11 19 C12.32 19.33 13.64 19.66 15 20 C14.67 21.32 14.34 22.64 14 24 C9.71 24 5.42 24 1 24 C0.67 22.68 0.34 21.36 0 20 C1.32 19.67 2.64 19.34 4 19 C4 14.71 4 10.42 4 6 C2.68 6 1.36 6 0 6 C0 4.02 0 2.04 0 0 Z " fill="#010101" transform="translate(46,8)"/>
</svg>
