<?xml version="1.0" encoding="utf-8"?>
<!DOCTYPE svg PUBLIC "-//W3C//DTD SVG 20010904//EN" "http://www.w3.org/TR/2001/REC-SVG-20010904/DTD/svg10.dtd">
<svg version="1.0" xmlns="http://www.w3.org/2000/svg" width="115pt" height="43pt" viewBox="0 0 115 43" style="" preserveAspectRatio="xMidYMid meet">
<g fill="#F1E4B0FF">
<path d="M 54.315 5.825 C 54.732 7.911 54.434 9.225 53.335 10.137 C 52.063 11.193 51.873 12.724 52.362 17.985 C 52.869 23.443 52.642 25.059 50.985 27.785 C 46.988 34.357 49.286 37.000 58.998 37.000 C 62.987 37.000 63.980 36.639 64.500 35.000 C 64.849 33.900 65.554 33.000 66.067 33.000 C 66.580 33.000 67.000 31.887 67.000 30.526 C 67.000 28.774 66.101 27.587 63.923 26.460 C 61.058 24.978 60.892 24.599 61.511 20.935 C 62.103 17.430 61.954 17.000 60.147 17.000 C 57.263 17.000 56.518 15.190 58.500 13.000 C 59.566 11.822 59.881 10.638 59.348 9.813 C 58.882 9.091 58.500 7.375 58.500 6.000 C 58.500 4.124 57.903 3.416 56.107 3.162 C 53.936 2.855 53.770 3.101 54.315 5.825 "/></g>
<g fill="#FFFFF4FF">
<path d="M 52.165 37.123 C 52.899 37.589 55.750 37.941 58.500 37.906 C 64.488 37.830 63.493 37.323 56.165 36.718 C 53.044 36.460 51.384 36.628 52.165 37.123 "/></g>
<g fill="#FFFFF4FF">
<path d="M 67.136 30.321 C 67.061 31.323 66.335 32.898 65.523 33.821 C 64.165 35.364 64.210 35.388 66.075 34.115 C 67.359 33.239 67.951 31.954 67.688 30.615 C 67.358 28.936 67.244 28.875 67.136 30.321 "/></g>
<g fill="#FFFFF4FF">
<path d="M 53.345 3.543 C 53.019 4.392 53.034 5.367 53.376 5.710 C 53.719 6.053 54.000 5.613 54.000 4.733 C 54.000 3.755 55.069 2.971 56.750 2.716 L 59.500 2.300 56.719 2.150 C 55.028 2.059 53.705 2.605 53.345 3.543 "/></g>
<g fill="#FFFFF4FF">
<path d="M 57.660 13.750 C 57.232 14.438 57.232 15.563 57.660 16.250 C 58.156 17.047 58.437 16.595 58.437 15.000 C 58.437 13.405 58.156 12.953 57.660 13.750 "/></g>
</svg>
