<?xml version="1.0" encoding="utf-8"?>
<!DOCTYPE svg PUBLIC "-//W3C//DTD SVG 20010904//EN" "http://www.w3.org/TR/2001/REC-SVG-20010904/DTD/svg10.dtd">
<svg version="1.0" xmlns="http://www.w3.org/2000/svg" width="115pt" height="43pt" viewBox="0 0 115 43" style="" preserveAspectRatio="xMidYMid meet">
<g fill="#EFE5B2FF">
<path d="M 55.574 15.198 C 53.805 17.724 46.656 18.790 44.346 16.872 C 43.256 15.967 43.000 16.528 43.000 19.827 C 43.000 23.289 43.513 24.290 46.430 26.514 C 50.915 29.935 59.262 30.950 63.764 28.622 C 67.698 26.588 72.000 21.040 72.000 18.001 C 72.000 15.813 71.901 15.779 70.143 17.370 C 68.473 18.882 68.158 18.895 67.002 17.503 C 66.296 16.651 64.952 16.198 64.016 16.495 C 63.080 16.792 61.150 16.119 59.726 14.999 L 57.139 12.964 55.574 15.198 "/></g>
</svg>
