<?xml version="1.0" encoding="UTF-8"?>
<svg version="1.1" xmlns="http://www.w3.org/2000/svg" width="113" height="41">
<path d="M0 0 C0.144375 0.598125 0.28875 1.19625 0.4375 1.8125 C0.8872439 3.56150404 1.42892341 5.28677023 2 7 C5.99455527 6.38545304 8.74466336 4.29353263 12 2 C12.93423645 5.01031744 13.04449911 5.86650268 12 9 C10.35360035 10.35827971 8.68704193 11.69254251 7 13 C6.67 13.66 6.34 14.32 6 15 C5.34 15 4.68 15 4 15 C4 15.66 4 16.32 4 17 C-13.04619082 18.36707075 -13.04619082 18.36707075 -17.5625 15.20703125 C-20.2746099 11.15920723 -21.74883897 6.89764013 -22 2 C-21.06027344 2.32484375 -21.06027344 2.32484375 -20.1015625 2.65625 C-19.28429688 2.9346875 -18.46703125 3.213125 -17.625 3.5 C-16.40683594 3.91765625 -16.40683594 3.91765625 -15.1640625 4.34375 C-13.05790758 5.09673305 -13.05790758 5.09673305 -11 5 C-10.773125 4.38125 -10.54625 3.7625 -10.3125 3.125 C-7.84440666 -0.87096064 -4.27036473 -1.58161657 0 0 Z " fill="#F1EBCE" transform="translate(59,11)"/>
<path d="M0 0 C0.99 0.66 1.98 1.32 3 2 C3.99 2 4.98 2 6 2 C6.33 3.65 6.66 5.3 7 7 C10.40080577 6.89592083 10.40080577 6.89592083 14 6 C15.77148372 3.52066803 15.77148372 3.52066803 17 1 C17.99 1 18.98 1 20 1 C19.51219512 6.48780488 19.51219512 6.48780488 17.125 8.875 C15 10 15 10 12 10 C12 10.66 12 11.32 12 12 C7.84264352 14.07867824 3.37133048 12.8742661 -1 12 C-2.9996441 11.96227087 -5.00054061 11.95350094 -7 12 C-6.34 10.68 -5.68 9.36 -5 8 C-4.34 8 -3.68 8 -3 8 C-2.814375 6.2984375 -2.814375 6.2984375 -2.625 4.5625 C-2.41875 3.386875 -2.2125 2.21125 -2 1 C-1.34 0.67 -0.68 0.34 0 0 Z " fill="#E0D6AC" transform="translate(52,13)"/>
<path d="M0 0 C0.99 0.66 1.98 1.32 3 2 C3.99 2 4.98 2 6 2 C6.33 3.32 6.66 4.64 7 6 C6.05125 6.2475 5.1025 6.495 4.125 6.75 C0.91306809 7.6857077 0.91306809 7.6857077 -0.375 10.125 C-0.58125 10.74375 -0.7875 11.3625 -1 12 C-2.98 12 -4.96 12 -7 12 C-6.34 10.68 -5.68 9.36 -5 8 C-4.34 8 -3.68 8 -3 8 C-2.814375 6.2984375 -2.814375 6.2984375 -2.625 4.5625 C-2.41875 3.386875 -2.2125 2.21125 -2 1 C-1.34 0.67 -0.68 0.34 0 0 Z " fill="#EFE2AF" transform="translate(52,13)"/>
<path d="M0 0 C0.144375 0.598125 0.28875 1.19625 0.4375 1.8125 C0.8872439 3.56150404 1.42892341 5.28677023 2 7 C3.98 6.67 5.96 6.34 8 6 C8 6.99 8 7.98 8 9 C5.36 9 2.72 9 0 9 C-0.66 7.35 -1.32 5.7 -2 4 C-2.99 4.33 -3.98 4.66 -5 5 C-5.66 4.34 -6.32 3.68 -7 3 C-7.66 3 -8.32 3 -9 3 C-9.33 3.66 -9.66 4.32 -10 5 C-10 2 -10 2 -8 0 C-4.98413546 -1.105817 -3.03916514 -0.97687451 0 0 Z " fill="#F6F0D8" transform="translate(59,11)"/>
<path d="M0 0 C0.66 0.33 1.32 0.66 2 1 C1.51219512 6.48780488 1.51219512 6.48780488 -0.875 8.875 C-3 10 -3 10 -6 10 C-6 10.66 -6 11.32 -6 12 C-6.66 12 -7.32 12 -8 12 C-8 10.35 -8 8.7 -8 7 C-7.13375 6.6596875 -7.13375 6.6596875 -6.25 6.3125 C-3.4336339 4.66961977 -1.91922886 2.60466773 0 0 Z " fill="#EDE6B2" transform="translate(70,13)"/>
<path d="M0 0 C0.66 0.33 1.32 0.66 2 1 C2 1.66 2 2.32 2 3 C2.66 3 3.32 3 4 3 C3.67 3.99 3.34 4.98 3 6 C-0.0625 7.1875 -0.0625 7.1875 -3 8 C-2.74438677 5.6568787 -2.40729228 3.32156597 -2 1 C-1.34 0.67 -0.68 0.34 0 0 Z " fill="#E2CDAC" transform="translate(52,13)"/>
<path d="M0 0 C3.465 1.485 3.465 1.485 7 3 C6.34 4.32 5.68 5.64 5 7 C3.68 6.67 2.36 6.34 1 6 C0.67 4.02 0.34 2.04 0 0 Z " fill="#E0CFB1" transform="translate(37,13)"/>
<path d="M0 0 C0.66 0.33 1.32 0.66 2 1 C1.67 2.98 1.34 4.96 1 7 C-0.65 6.67 -2.3 6.34 -4 6 C-1.125 1.125 -1.125 1.125 0 0 Z " fill="#D8C86F" transform="translate(70,13)"/>
<path d="M0 0 C0 0.99 0 1.98 0 3 C-2.5 5.1875 -2.5 5.1875 -5 7 C-5.66 5.68 -6.32 4.36 -7 3 C-6.401875 2.87625 -5.80375 2.7525 -5.1875 2.625 C-2.73768652 2.04524015 -2.73768652 2.04524015 0 0 Z " fill="#F7E8C8" transform="translate(46,16)"/>
<path d="M0 0 C0.33 0 0.66 0 1 0 C1 1.65 1 3.3 1 5 C0.67 5 0.34 5 0 5 C0 3.35 0 1.7 0 0 Z " fill="#FCFADB" transform="translate(35,12)"/>
</svg>
