<?xml version="1.0" encoding="UTF-8"?>
<svg version="1.1" xmlns="http://www.w3.org/2000/svg" width="113" height="41">
<path d="M0 0 C2.1640625 -0.29296875 2.1640625 -0.29296875 4.625 -0.1875 C5.44226562 -0.16042969 6.25953125 -0.13335938 7.1015625 -0.10546875 C8.04128906 -0.05326172 8.04128906 -0.05326172 9 0 C8.33333333 2 7.66666667 4 7 6 C5.68 6 4.36 6 3 6 C3.22860572 7.94014063 3.48369181 9.87717414 3.75 11.8125 C3.88921875 12.89144531 4.0284375 13.97039063 4.171875 15.08203125 C5.14625155 18.51532975 6.18966942 19.00649315 9 21 C9 22.32 9 23.64 9 25 C5.99686252 26.50156874 3.20932478 26.09281204 -0.125 26.0625 C-1.40632813 26.05347656 -2.68765625 26.04445313 -4.0078125 26.03515625 C-5.48894531 26.01775391 -5.48894531 26.01775391 -7 26 C-8.125 22.25 -8.125 22.25 -7 20 C-6.01 19.67 -5.02 19.34 -4 19 C-4 15.37 -4 11.74 -4 8 C-4.99 8 -5.98 8 -7 8 C-7 5.69 -7 3.38 -7 1 C-3.125 1.875 -3.125 1.875 -2 3 C-1.34 2.01 -0.68 1.02 0 0 Z M4 3 C3.34 3.66 2.68 4.32 2 5 C3.32 4.67 4.64 4.34 6 4 C5.34 3.67 4.68 3.34 4 3 Z " fill="#EDE5B9" transform="translate(53,7)"/>
<path d="M0 0 C3 1.75 3 1.75 6 4 C6 5.32 6 6.64 6 8 C2.99686252 9.50156874 0.20932478 9.09281204 -3.125 9.0625 C-4.40632813 9.05347656 -5.68765625 9.04445313 -7.0078125 9.03515625 C-8.48894531 9.01775391 -8.48894531 9.01775391 -10 9 C-10.33 7.68 -10.66 6.36 -11 5 C-9.515 5.99 -9.515 5.99 -8 7 C-6.0103005 7.39013716 -4.00980131 7.73202649 -2 8 C-2 5.69 -2 3.38 -2 1 C-1.34 0.67 -0.68 0.34 0 0 Z " fill="#F4EDCF" transform="translate(56,24)"/>
<path d="M0 0 C0.99 0 1.98 0 3 0 C3.33 1.32 3.66 2.64 4 4 C1.69 4.33 -0.62 4.66 -3 5 C-3 4.01 -3 3.02 -3 2 C-2.67 2.33 -2.34 2.66 -2 3 C-1.34 2.01 -0.68 1.02 0 0 Z " fill="#F3EFD4" transform="translate(53,7)"/>
<path d="M0 0 C1.65 0 3.3 0 5 0 C4.33333333 2 3.66666667 4 3 6 C2.34 6 1.68 6 1 6 C0.67 4.02 0.34 2.04 0 0 Z " fill="#F2F1D6" transform="translate(57,7)"/>
</svg>
