<?xml version="1.0" encoding="UTF-8"?>
<svg version="1.1" xmlns="http://www.w3.org/2000/svg" width="113" height="41">
<path d="M0 0 C0 2.64 0 5.28 0 8 C-2.97 8.66 -5.94 9.32 -9 10 C-8.67 11.2375 -8.34 12.475 -8 13.75 C-7.20108841 16.74591845 -7 18.80107719 -7 22 C-6.34 22 -5.68 22 -5 22 C-5 22.99 -5 23.98 -5 25 C-12.4933161 28.39319974 -19.98564887 29.32191481 -28 27 C-28.125 22.25 -28.125 22.25 -27 20 C-27.25217444 18.11593808 -27.57607398 16.24118662 -27.9375 14.375 C-28.81918308 9.46361102 -29.19144082 4.97746125 -29 0 C-18.57015725 -4.55120411 -10.78526815 -3.06586303 0 0 Z " fill="#EDE2B1" transform="translate(70,7)"/>
<path d="M0 0 C0.33 0 0.66 0 1 0 C1.12375 0.969375 1.2475 1.93875 1.375 2.9375 C1.58125 3.948125 1.7875 4.95875 2 6 C2.66 6.33 3.32 6.66 4 7 C3.98839844 7.83144531 3.97679687 8.66289062 3.96484375 9.51953125 C3.95582031 10.60621094 3.94679687 11.69289063 3.9375 12.8125 C3.92589844 13.89144531 3.91429687 14.97039063 3.90234375 16.08203125 C3.86375234 19.06512169 3.86375234 19.06512169 5 22 C4.67 22.99 4.34 23.98 4 25 C10.93 25.495 10.93 25.495 18 26 C16 28 16 28 13.5390625 28.23046875 C12.57742187 28.21628906 11.61578125 28.20210937 10.625 28.1875 C9.66851562 28.18105469 8.71203125 28.17460938 7.7265625 28.16796875 C5.33405932 28.02057959 3.28958203 27.67819373 1 27 C0.875 22.25 0.875 22.25 2 20 C1.74782556 18.11593808 1.42392602 16.24118662 1.0625 14.375 C0.18081692 9.46361102 -0.19144082 4.97746125 0 0 Z " fill="#F2EFD8" transform="translate(41,7)"/>
<path d="M0 0 C1.32 0.33 2.64 0.66 4 1 C3.34 1 2.68 1 2 1 C2.33 2.2375 2.66 3.475 3 4.75 C3.79891159 7.74591845 4 9.80107719 4 13 C4.66 13 5.32 13 6 13 C6 13.99 6 14.98 6 16 C3 15 3 15 1.3125 13.0625 C-0.55449986 8.70616699 -0.24502682 4.6736598 0 0 Z " fill="#EBE3B9" transform="translate(59,16)"/>
<path d="M0 0 C0.33 0 0.66 0 1 0 C1.12375 0.969375 1.2475 1.93875 1.375 2.9375 C1.58125 3.948125 1.7875 4.95875 2 6 C2.66 6.33 3.32 6.66 4 7 C3.98839844 7.83144531 3.97679687 8.66289062 3.96484375 9.51953125 C3.95582031 10.60621094 3.94679687 11.69289063 3.9375 12.8125 C3.92589844 13.89144531 3.91429687 14.97039063 3.90234375 16.08203125 C3.86375234 19.06512169 3.86375234 19.06512169 5 22 C4.01 21.67 3.02 21.34 2 21 C0.79556805 13.94546999 -0.28100502 7.16562789 0 0 Z " fill="#F9F7DD" transform="translate(41,7)"/>
<path d="M0 0 C1.32 0.33 2.64 0.66 4 1 C3.34 1 2.68 1 2 1 C2.33 3.31 2.66 5.62 3 8 C2.34 8 1.68 8 1 8 C0.67 5.36 0.34 2.72 0 0 Z " fill="#F5F1D6" transform="translate(59,16)"/>
</svg>
