<?xml version="1.0" encoding="UTF-8"?>
<svg version="1.1" xmlns="http://www.w3.org/2000/svg" width="113" height="41">
<path d="M0 0 C3.34145968 -0.23312509 5.71583874 -0.10501612 8.875 1.0625 C11 3 11 3 11.4375 6.5625 C11 10 11 10 9 12 C9.36681658 14.93453261 9.86437246 15.86437246 12 18 C12.265625 19.875 12.265625 19.875 12.25 22 C12.25515625 22.70125 12.2603125 23.4025 12.265625 24.125 C12 26 12 26 10 28 C7.9765625 28.265625 7.9765625 28.265625 5.625 28.25 C4.85414062 28.25515625 4.08328125 28.2603125 3.2890625 28.265625 C0.8007639 27.97688045 -0.84234198 27.24139229 -3 26 C-3.31563182 20.73946963 -2.66590937 17.55426184 0 13 C-0.66 13 -1.32 13 -2 13 C-3.60725635 9.78548731 -3.05748185 6.56387464 -3 3 C-2.01 2.67 -1.02 2.34 0 2 C0 1.34 0 0.68 0 0 Z " fill="#F4ECC8" transform="translate(50,8)"/>
<path d="M0 0 C1.1875 1.5625 1.1875 1.5625 2 4 C0.625 7.75 0.625 7.75 -1 11 C-0.0409375 11.2165625 -0.0409375 11.2165625 0.9375 11.4375 C3 12 3 12 4 13 C4.14115161 15.67058851 4.04247107 18.32432238 4 21 C3.34 21 2.68 21 2 21 C2 21.66 2 22.32 2 23 C-4.625 23.125 -4.625 23.125 -8 22 C-8.125 18.625 -8.125 18.625 -8 15 C-7.34 14.34 -6.68 13.68 -6 13 C-5.31060191 10.67328146 -4.64533078 8.33932406 -4 6 C-3.37530495 4.64649406 -2.7283669 3.30065517 -2 2 C-1.34 2 -0.68 2 0 2 C0 1.34 0 0.68 0 0 Z " fill="#EDE3B0" transform="translate(57,12)"/>
<path d="M0 0 C3.34145968 -0.23312509 5.71583874 -0.10501612 8.875 1.0625 C11 3 11 3 11.5 6.375 C10.99011426 10.07167159 10.29535358 12.0866666 8 15 C7.34 15 6.68 15 6 15 C6.59950296 11.31733897 7.24758891 7.65456815 8 4 C4.7 4 1.4 4 -2 4 C-2 6.31 -2 8.62 -2 11 C-2.33 11 -2.66 11 -3 11 C-3 8.36 -3 5.72 -3 3 C-2.01 2.67 -1.02 2.34 0 2 C0 1.34 0 0.68 0 0 Z " fill="#F4F1D8" transform="translate(50,8)"/>
<path d="M0 0 C0.99 0.66 1.98 1.32 3 2 C3.40843923 4.71203652 3.13336867 7.2437142 3 10 C2.34 10 1.68 10 1 10 C1 10.66 1 11.32 1 12 C-1.31 12 -3.62 12 -6 12 C-5.401875 11.731875 -4.80375 11.46375 -4.1875 11.1875 C-1.15696831 9.57545873 -1.15696831 9.57545873 1 7 C0.76522801 3.35458155 0.76522801 3.35458155 0 0 Z " fill="#ECE6C6" transform="translate(58,23)"/>
<path d="M0 0 C1.32 0 2.64 0 4 0 C4.125 2.875 4.125 2.875 4 6 C3.34 6.66 2.68 7.32 2 8 C1.60235737 9.98821313 1.26224651 11.98944339 1 14 C0.67 14 0.34 14 0 14 C-0.17835515 9.45194365 0.00214565 6.1205746 2 2 C1.34 2 0.68 2 0 2 C0 1.34 0 0.68 0 0 Z " fill="#F1EDCF" transform="translate(48,19)"/>
</svg>
